<svg id="Layer_1" data-name="Layer 1" xmlns="http://www.w3.org/2000/svg" viewBox="0 0 430.34 751.53"><defs><style>.cls-1{fill:#446f35;}.cls-1,.cls-2,.cls-5,.cls-6{stroke:#010101;}.cls-1,.cls-2,.cls-4,.cls-5,.cls-6{stroke-miterlimit:10;}.cls-1,.cls-4,.cls-5,.cls-6{stroke-width:2px;}.cls-2,.cls-6{fill:none;}.cls-2{stroke-width:3px;}.cls-3{fill:#070808;}.cls-4{fill:#e2daca;stroke:#070808;}.cls-5{fill:#b92025;}</style></defs><title>LeftSide</title><path class="cls-1" d="M68.65,536.94,228.79,693.19H69.24S69.82,538.11,68.65,536.94Z" transform="translate(1.34 0)"/><polyline class="cls-2" points="430.34 1.5 2.83 1.5 3.83 749.03 430.34 750.03"/><rect class="cls-3" x="1.29" y="101.57" width="18.44" height="395"/><path class="cls-4" d="M70.95,502.56V677.28L.67,749l-1-175.49S70.95,505.22,70.95,502.56Z" transform="translate(1.34 0)"/><path class="cls-3" d="M39.46,611.77v97.3L1.71,748.15l-1-97.27S39.46,613.24,39.46,611.77Z" transform="translate(1.34 0)"/><polyline class="cls-5" points="0.83 411.42 83.36 500.96 2.59 581.71 2.59 411.42"/><path class="cls-1" d="M177,2.67,113.33,71.72l-44.78-.88L2.71,141.07V1.5Z" transform="translate(1.34 0)"/><line class="cls-6" x1="77.79" y1="16.42" x2="2.29" y2="91.91"/><line class="cls-6" x1="119.94" y1="36.61" x2="59.36" y2="36.61"/><path class="cls-1" d="M206.1,749.48l-204.37,1,102.6-107.77S204.48,747.8,206.1,749.48Z" transform="translate(1.34 0)"/><path class="cls-1" d="M349.51,749.9H80.85l137-143.55S347.31,747.65,349.51,749.9Z" transform="translate(1.34 0)"/><line class="cls-6" x1="214.46" y1="633.63" x2="214.46" y2="681.63"/><line class="cls-6" x1="193.39" y1="659.97" x2="229.97" y2="696.55"/><line class="cls-6" x1="238.46" y1="686.15" x2="195" y2="726.86"/><line class="cls-6" x1="163.54" y1="696.07" x2="218.71" y2="750.5"/><line class="cls-6" x1="286.46" y1="713.24" x2="211.54" y2="713.24"/></svg>