<svg id="Layer_1" data-name="Layer 1" xmlns="http://www.w3.org/2000/svg" viewBox="0 0 500.55 751.86"><defs><style>.cls-1{fill:#010101;}.cls-2{fill:#d76e28;stroke-width:2.5px;}.cls-2,.cls-5{stroke:#070808;}.cls-2,.cls-3,.cls-4,.cls-5,.cls-9{stroke-miterlimit:10;}.cls-3{fill:#446f35;}.cls-3,.cls-4,.cls-9{stroke:#010101;}.cls-3,.cls-4,.cls-5{stroke-width:2px;}.cls-4,.cls-9{fill:none;}.cls-5,.cls-6{fill:#e2daca;}.cls-7{fill:#0e180f;}.cls-8{fill:#080606;}.cls-9{stroke-width:3px;}</style></defs><title>RightSide</title><path class="cls-1" d="M484,692.3.5,692.5l49.7,58.83H484.25S485.5,692.5,484,692.3Z" transform="translate(0 0.53)"/><circle class="cls-2" cx="188.3" cy="68.71" r="52.2"/><path class="cls-3" d="M485.1,414.32,357.15,541.26l-14-15.76L260,608.67,242.91,591.6,139.16,691.84H485.35S486.41,413,485.1,414.32Z" transform="translate(0 0.53)"/><line class="cls-4" x1="476.22" y1="497.14" x2="429.38" y2="543.98"/><line class="cls-4" x1="429.82" y1="516.4" x2="429.82" y2="645.09"/><line class="cls-4" x1="402.68" y1="618.83" x2="476" y2="692.15"/><line class="cls-4" x1="344.03" y1="560.17" x2="344.03" y2="635.02"/><line class="cls-4" x1="372.92" y1="606.57" x2="323.89" y2="655.6"/><path class="cls-4" d="M274,645.44s47.27,42.9,48.59,44.21L323,628.8" transform="translate(0 0.53)"/><line class="cls-4" x1="285.37" y1="656.47" x2="207.45" y2="654.72"/><rect class="cls-5" x="485.54" y="148.96" width="13.13" height="601.88"/><path class="cls-3" d="M357.59,2,428.5,72H394.36l103.3,98.05V2S359.34,3.72,357.59,2Z" transform="translate(0 0.53)"/><polyline class="cls-4" points="442.51 20.01 495.04 72.54 461.77 105.81"/><line class="cls-4" x1="447.77" y1="90.92" x2="499.42" y2="142.58"/><polygon class="cls-6" points="377.29 708.13 377.48 715.86 365.18 732.05 359.46 732.2 354.97 731.11 352.34 730.45 348.62 731.54 354.53 732.86 357.01 733.66 346.36 734.17 346.21 734.97 345.85 735.78 347.16 736.14 358.47 735.85 353.8 737.75 349.72 738.18 351.76 739.13 357.6 738.91 363.72 735.7 369.78 735.48 369.56 734.17 366.71 733.29 368.25 731.62 389.11 708.27 377.29 708.13"/><polygon class="cls-6" points="394.37 708.71 414.79 728.85 416.25 731.76 406.04 731.76 403.7 733.22 413.63 733.22 412.17 735.26 399.33 735.26 397.87 737.31 411.58 737.31 409.25 739.35 408.37 739.64 405.75 741.98 408.08 741.98 419.75 733.22 420.41 728.7 421.94 724.76 420.41 723.88 418.66 728.92 403.56 712.94 403.12 708.34 394.37 708.71"/><path class="cls-5" d="M360.66,663.38,372.48,677H411l38.08-39.83h16.63l-60,70.47h-32l-27.14-32-12.11-.15-2-1.31,1.75-1.61H345l11.38-9.34Z" transform="translate(0 0.53)"/><polygon class="cls-7" points="375.25 689.01 379.48 693.24 399.62 693.24 401.95 690.91 401.95 688.28 385.61 688.28 385.61 685.07 402.54 685.07 402.54 677.48 406.33 677.48 415.05 690.73 407.5 698.28 374.45 698.28 370.29 694.12 370.73 685.8 375.25 685.8 375.25 689.01"/><polygon class="cls-7" points="455.06 637.8 418.88 678.36 418.29 681.28 421.21 680.4 457.69 638.96 455.06 637.8"/><polygon class="cls-7" points="363.43 694.41 363.43 690.91 366.64 690.62 358.76 680.4 358.76 673.98 345.05 673.98 363.43 694.41"/><rect class="cls-8" x="355.55" y="667.27" width="3.5" height="3.5"/><polyline class="cls-9" points="0 2.5 498.55 1.5 499.05 750.2 189.07 750.2"/></svg>